<?xml version="1.0" standalone="no"?>
<!DOCTYPE svg PUBLIC "-//W3C//DTD SVG 1.1//EN" "http://www.w3.org/Graphics/SVG/1.1/DTD/svg11.dtd" >
<svg xmlns="http://www.w3.org/2000/svg">
<metadata></metadata>
<defs>
<font id="jlr_emericextralight" horiz-adv-x="1220" >
<font-face units-per-em="2048" ascent="1497" descent="-551" />
<missing-glyph horiz-adv-x="466" />
<glyph unicode="&#xfb01;" horiz-adv-x="1081" d="M4 918v53l191 26q-31 79 -31 162q0 140 93.5 224.5t240.5 84.5q133 0 272 -73l-22 -56l-48 13q-117 30 -194 30q-238 0 -238 -229q0 -75 27 -154h383v-81h-371v-918h-104v918h-199zM813 0v999h105v-999h-105z" />
<glyph unicode="&#xfb02;" horiz-adv-x="1128" d="M4 918v53l191 26q-31 79 -31 162q0 141 92.5 225t239.5 84q117 0 229 -53l-18 -55l-54 8q-92 14 -147 14q-238 0 -238 -229q0 -75 27 -154h383v-81h-371v-918h-104v918h-199zM821 152v1300h105v-1360l186 -26v-43q-71 -27 -139 -27q-78 0 -115 37t-37 119z" />
<glyph unicode="&#xfb03;" horiz-adv-x="1736" d="M4 918v53l191 26q-31 79 -31 162q0 140 93.5 224.5t240.5 84.5q133 0 272 -73l-22 -56l-48 13q-117 30 -194 30q-238 0 -238 -229q0 -75 27 -154h553q-29 82 -29 160q0 140 93.5 224.5t240.5 84.5q133 0 272 -73l-22 -56l-47 13q-117 30 -195 30q-116 0 -176.5 -54.5 t-60.5 -174.5q0 -78 26 -154h383v-81h-370v-918h-105v918h-551v-918h-104v918h-199zM1468 0v999h105v-999h-105z" />
<glyph unicode="&#xfb04;" horiz-adv-x="1783" d="M4 918v53l191 26q-31 79 -31 162q0 140 93.5 224.5t240.5 84.5q133 0 272 -73l-22 -56l-48 13q-117 30 -194 30q-238 0 -238 -229q0 -75 27 -154h555q-31 79 -31 160q0 141 92.5 225t239.5 84q117 0 229 -53l-18 -55l-53 8q-92 14 -148 14q-116 0 -176.5 -54.5 t-60.5 -174.5q0 -78 26 -154h383v-81h-370v-918h-105v918h-551v-918h-104v918h-199zM1477 152v1300h104v-1360l186 -26v-43q-71 -27 -139 -27q-78 0 -115 37q-36 36 -36 119z" />
<glyph horiz-adv-x="0" />
<glyph horiz-adv-x="0" />
<glyph horiz-adv-x="682" />
<glyph unicode="&#xd;" horiz-adv-x="466" />
<glyph unicode=" "  horiz-adv-x="466" />
<glyph unicode="&#x09;" horiz-adv-x="466" />
<glyph unicode="&#xa0;" horiz-adv-x="466" />
<glyph unicode="!" horiz-adv-x="473" d="M168 0v141h111q15 0 20.5 -4.5t5.5 -17.5v-119h-137zM184 864v494h107v-494q0 -137 -8 -246l-21 -282h-49l-20 282q-9 120 -9 246z" />
<glyph unicode="&#x22;" horiz-adv-x="731" d="M164 1278v80h110v-80q0 -120 -10 -227l-18 -191h-53l-19 191q-10 108 -10 227zM457 1278v80h110v-80q0 -120 -10 -227l-18 -191h-54l-18 191q-10 108 -10 227z" />
<glyph unicode="#" d="M113 393v88h206l72 396h-278v88h293l69 393h94l-69 -393h319l70 393h94l-70 -393h195v-88h-209l-74 -396h283v-88h-297l-68 -393h-94l68 393h-320l-67 -393h-94l67 393h-190zM414 481h317l74 396h-320z" />
<glyph unicode="$" d="M135 100l29 60l125 -37q151 -49 289 -49v616l-62 23q-190 70 -271 150.5t-81 199.5q0 145 112 227.5t302 87.5l12 191h74v-193q183 -13 342 -73l-21 -64l-100 16q-154 23 -221 25v-516l32 -12q90 -33 152 -66t113.5 -78t76.5 -104t25 -135q0 -162 -110.5 -264.5 t-288.5 -120.5l-13 -197h-73v193q-109 3 -233 36t-210 84zM264 1065q0 -92 65 -145.5t222 -114.5l27 -10v487q-147 -5 -230.5 -58.5t-83.5 -158.5zM664 78q142 18 218 97t76 198q0 105 -65.5 165t-228.5 119v-579z" />
<glyph unicode="%" horiz-adv-x="1777" d="M96 1026q0 149 99.5 250.5t242.5 101.5t242.5 -101.5t99.5 -250.5q0 -150 -99.5 -251t-242.5 -101t-242.5 101t-99.5 251zM195 1026q0 -127 69 -194.5t174 -67.5q106 0 175 67.5t69 194.5t-69 194.5t-175 67.5q-105 0 -174 -67.5t-69 -194.5zM500 0l676 1358h100 l-674 -1358h-102zM997 332q0 149 99.5 250.5t242.5 101.5t242.5 -101.5t99.5 -250.5q0 -150 -99.5 -251t-242.5 -101t-242.5 101t-99.5 251zM1096 332q0 -127 69 -194.5t174 -67.5q106 0 175 67.5t69 194.5t-69 194.5t-175 67.5q-105 0 -174 -67.5t-69 -194.5z" />
<glyph unicode="&#x26;" horiz-adv-x="1460" d="M61 434q0 118 80.5 214.5t241.5 199.5q-86 117 -86 219q0 136 101.5 223.5t238.5 87.5q132 0 230 -85t98 -218q0 -99 -71.5 -194.5t-217.5 -214.5l346 -367q108 153 162 293l80 209l67 -17q-83 -336 -250 -551l142 -149l184 -23v-38q-73 -31 -133 -31q-55 0 -94.5 21 t-89.5 75l-68 74q-185 -182 -444 -182q-141 0 -260.5 62.5t-188 166.5t-68.5 225zM166 434q0 -148 121 -256t293 -108q228 0 383 155l-535 570l-41 -33q-126 -100 -173.5 -167.5t-47.5 -160.5zM391 1075q0 -62 34 -118t124 -154l80 -88q121 121 176 194q67 90 67 172 q0 88 -67.5 147.5t-171.5 59.5q-102 0 -172 -59.5t-70 -153.5z" />
<glyph unicode="'" horiz-adv-x="438" d="M164 1278v80h110v-80q0 -120 -10 -227l-18 -191h-53l-19 191q-10 108 -10 227z" />
<glyph unicode="(" horiz-adv-x="608" d="M156 444q0 528 442 942l57 -47q-395 -392 -395 -895t395 -895l-57 -47q-442 414 -442 942z" />
<glyph unicode=")" horiz-adv-x="608" d="M-47 -451q395 392 395 895t-395 895l57 47q443 -415 443 -942t-443 -942z" />
<glyph unicode="*" horiz-adv-x="845" d="M98 1085l29 78q8 22 37 8l233 -127l-20 314h76q13 0 19 -5.5t5 -21.5l-24 -287l260 134l28 -64q8 -15 5.5 -24t-21.5 -15l-250 -80l217 -239l-67 -37q-15 -8 -24 -5.5t-19 17.5l-156 232l-174 -258l-70 43q-23 13 -2 34l197 213z" />
<glyph unicode="+" horiz-adv-x="1064" d="M168 461v84h321v321h84v-321h322v-84h-322v-322h-84v322h-321z" />
<glyph unicode="," horiz-adv-x="419" d="M66 -258l114 227q7 14 -2 23l-22 18q-14 12 -17.5 19t-3.5 20v96h117q15 0 21 -4.5t6 -17.5v-62q0 -79 -34.5 -143.5t-138.5 -198.5z" />
<glyph unicode="-" horiz-adv-x="862" d="M143 459v84h576v-84h-576z" />
<glyph unicode="." horiz-adv-x="419" d="M139 0v145h115q17 0 22 -4t5 -18v-123h-142z" />
<glyph unicode="/" horiz-adv-x="854" d="M33 0l686 1358h102l-686 -1358h-102z" />
<glyph unicode="0" d="M115 678q0 190 57 347.5t171.5 255t266.5 97.5q92 0 172 -36.5t139 -102t101 -153t63 -191.5t21 -217q0 -190 -57 -347.5t-172 -255.5t-267 -98t-266.5 98t-171.5 255.5t-57 347.5zM223 678q0 -175 44 -310t132.5 -214.5t210.5 -79.5t210.5 79.5t132.5 214.5t44 310 t-44 310t-132.5 214.5t-210.5 79.5t-210.5 -79.5t-132.5 -214.5t-44 -310z" />
<glyph unicode="1" d="M225 1145l404 196q38 17 61 17h49v-1276h322v-82h-811v82h385v1161l-375 -162z" />
<glyph unicode="2" d="M172 1243q232 135 444 135q176 0 287 -101t111 -263q0 -124 -73 -236.5t-257 -304.5l-373 -387h733v-86h-854v59q0 18 17 37l409 439q70 75 106 115.5t78 94t60.5 91.5t31.5 84.5t13 95.5q0 127 -80 196.5t-213 69.5t-301 -61l-106 -39z" />
<glyph unicode="3" d="M100 143l35 56l115 -45q207 -80 348 -80q167 0 263.5 87.5t96.5 239.5q0 124 -67 191q-65 65 -215 65h-146q-11 0 -14.5 3t-3.5 12v65h211q44 0 65 10t41 41q72 116 72 238q0 124 -73 191t-207 67q-119 0 -287 -57l-129 -45l-33 59q245 137 446 137q105 0 190.5 -36.5 t139 -113.5t53.5 -184q0 -158 -133 -337q197 -86 197 -314q0 -176 -125 -294.5t-336 -118.5q-251 0 -504 163z" />
<glyph unicode="4" d="M111 362v56q0 23 12 37l692 884q16 19 37 19h74v-914h213v-82h-213v-362h-103v362h-712zM221 444h602v773z" />
<glyph unicode="5" d="M145 125l33 57l127 -47q168 -61 293 -61q171 0 265.5 89.5t94.5 258.5q0 148 -89.5 225.5t-245.5 77.5q-152 0 -328 -68q-15 -5 -33 5l-29 16q-14 8 -14 29v651h742v-86h-650v-305q0 -150 -8 -226q165 72 336 72q183 0 303.5 -105.5t120.5 -287.5q0 -193 -121 -316.5 t-334 -123.5q-113 0 -237 39.5t-226 105.5z" />
<glyph unicode="6" d="M143 623v12q0 151 40.5 285.5t114.5 236.5t186 161.5t247 59.5q143 0 279 -57l-23 -68q-140 35 -242 35q-116 0 -208.5 -45.5t-153.5 -126.5t-95.5 -188t-41.5 -234l51 29q202 113 383 113q189 0 306.5 -110.5t117.5 -287.5q0 -192 -131.5 -325t-317.5 -133 q-99 0 -183 34.5t-144 94.5t-102 141.5t-62.5 176t-20.5 196.5zM248 573q0 -134 46 -246t139.5 -183.5t217.5 -71.5q154 0 252 101.5t98 262.5q0 151 -89.5 228t-247.5 77q-92 0 -196 -31t-192 -83q-18 -10 -23 -20.5t-5 -33.5z" />
<glyph unicode="7" d="M137 1268v90h944v-51q0 -28 -12 -50l-381 -686q-100 -179 -133.5 -291t-42.5 -280h-98q4 175 41 295.5t143 306.5l379 666h-840z" />
<glyph unicode="8" d="M111 383q0 113 73 215.5t193 183.5q-187 106 -187 271q0 97 62.5 172.5t160 114t208.5 38.5q112 0 207.5 -39t155.5 -115.5t60 -174.5q0 -171 -223 -357q138 -61 212.5 -137.5t74.5 -187.5q0 -161 -142 -274t-354 -113q-136 0 -250 50.5t-182.5 143.5t-68.5 209zM211 387 q0 -135 111.5 -225t291.5 -90q166 0 281 82.5t115 207.5q0 38 -12.5 71.5t-40.5 62t-55.5 50t-77.5 46t-84 39t-95 39.5l-166 67q-24 11 -49 -8q-219 -160 -219 -342zM287 1053q0 -44 20 -81.5t57.5 -67t76 -50.5t91.5 -43l179 -74q27 -11 47 4q192 159 192 303 q0 112 -93.5 176t-235.5 64q-89 0 -163 -24t-122.5 -77.5t-48.5 -129.5z" />
<glyph unicode="9" d="M106 936q0 191 128.5 316.5t318.5 125.5q123 0 222.5 -52t163 -141t97 -204t33.5 -244v-12q0 -352 -147.5 -548.5t-413.5 -196.5q-147 0 -285 59l25 65q144 -36 248 -36q227 0 342 155.5t129 440.5l-52 -29q-203 -111 -387 -111q-187 0 -304.5 116.5t-117.5 295.5z M209 938q0 -151 91.5 -236.5t246.5 -85.5q92 0 195.5 30.5t191.5 82.5q18 10 23.5 21t7.5 34q0 136 -46.5 248t-141.5 182t-222 70q-154 0 -250 -95.5t-96 -250.5z" />
<glyph unicode=":" horiz-adv-x="419" d="M139 0v145h115q17 0 22 -4t5 -18v-123h-142zM139 686v145h115q17 0 22 -4t5 -18v-123h-142z" />
<glyph unicode=";" horiz-adv-x="419" d="M68 -258l114 227q7 14 -2 23l-22 18q-14 12 -17.5 19t-3.5 20v96h117q15 0 21 -4.5t6 -17.5v-62q0 -79 -34 -144t-138 -198zM139 686v145h115q17 0 22 -4t5 -18v-123h-142z" />
<glyph unicode="&#x3c;" horiz-adv-x="1064" d="M168 463v80l727 329v-92l-621 -276l621 -279v-92z" />
<glyph unicode="=" horiz-adv-x="1064" d="M168 281v86h727v-86h-727zM168 641v84h727v-84h-727z" />
<glyph unicode="&#x3e;" horiz-adv-x="1064" d="M168 133v92l618 279l-618 276v92l727 -329v-80z" />
<glyph unicode="?" horiz-adv-x="956" d="M41 1247q108 61 225.5 96t214.5 35q179 0 294.5 -100t115.5 -262q0 -121 -73 -212.5t-243 -178.5l-120 -62l-21 -227h-51l-16 131q-7 61 -7 82q0 28 11.5 44.5t40.5 31.5l63 34q85 47 136 80.5t96 76.5t64.5 91t19.5 107q0 132 -85.5 201t-226.5 69q-116 0 -293 -55 l-118 -37zM336 0v141h110q15 0 21 -4.5t6 -17.5v-119h-137z" />
<glyph unicode="@" horiz-adv-x="1525" d="M61 498q0 201 98 362t260.5 248.5t354.5 87.5q145 0 272.5 -50t216 -134.5t139 -198t50.5 -238.5q0 -185 -94 -301t-234 -116q-56 0 -103 26t-73 62l-55 -31q-96 -55 -182 -55q-110 0 -183 67.5t-73 161.5q0 78 51.5 120t142.5 42q42 0 178 -8l105 -6v53q0 87 -31 121 q-42 45 -135 45q-72 0 -180 -27l-62 -14l-20 51q144 72 266 72q123 0 191 -68q59 -59 59 -172v-254q0 -48 28.5 -78t81.5 -30q99 0 164.5 89.5t65.5 241.5q0 242 -164.5 389.5t-417.5 147.5q-271 0 -442.5 -165.5t-171.5 -442.5q0 -177 81.5 -316.5t222.5 -216t316 -76.5 q170 0 373 86l182 78l31 -49q-137 -89 -296 -146t-304 -57q-142 0 -272 52t-226.5 143t-153.5 222.5t-57 281.5zM549 389q0 -66 49.5 -107.5t126.5 -41.5q90 0 188 59q19 12 19 35v125q0 10 -4 13t-15 3h-274q-90 0 -90 -86z" />
<glyph unicode="A" horiz-adv-x="1347" d="M43 0l567 1358h90q21 0 29 -19l578 -1339h-93q-20 0 -28 16l-146 342h-737l-141 -342q-4 -10 -9.5 -13t-17.5 -3h-92zM340 446h661l-200 476q-117 281 -135 333q-44 -125 -129 -329z" />
<glyph unicode="B" horiz-adv-x="1230" d="M172 0v1358h451q238 0 331 -96q72 -72 72 -203q0 -92 -39.5 -184t-107.5 -156q114 -36 181.5 -118.5t67.5 -213.5q0 -176 -106 -274q-119 -113 -356 -113h-494zM281 90h370q203 0 293 86q76 76 76 213q0 123 -68 191q-82 82 -295 82h-376v-572zM281 748h460q39 0 59.5 7 t39.5 31q84 105 84 252q0 121 -64 176q-64 54 -246 54h-333v-520z" />
<glyph unicode="C" horiz-adv-x="1351" d="M86 678q0 195 84 355.5t231 252.5t324 92q174 0 312 -90.5t223 -251.5l-66 -39l-104 107q-83 86 -170 131t-193 45q-154 0 -275.5 -77t-188 -214t-66.5 -309q0 -269 143.5 -433.5t394.5 -164.5q163 0 359 104l137 74l43 -55q-119 -104 -265.5 -164.5t-293.5 -60.5 q-181 0 -324.5 88.5t-224 248t-80.5 361.5z" />
<glyph unicode="D" horiz-adv-x="1415" d="M172 0v1358h383q349 0 537 -133q237 -167 237 -545q0 -380 -237 -547q-188 -133 -537 -133h-383zM281 90h247q345 0 506 121q185 141 185 469q0 326 -185 467q-161 121 -506 121h-247v-1178z" />
<glyph unicode="E" horiz-adv-x="1097" d="M172 0v1358h811v-88h-702v-516h634v-88h-634v-578h727v-88h-836z" />
<glyph unicode="F" horiz-adv-x="1034" d="M172 0v1358h801v-88h-692v-516h620v-88h-620v-666h-109z" />
<glyph unicode="G" horiz-adv-x="1472" d="M86 676q0 154 52 286.5t141 223t208 141.5t252 51q183 0 328.5 -88.5t235.5 -240.5l-62 -43l-117 108q-90 85 -183 126.5t-212 41.5q-102 0 -196.5 -39t-170 -112.5t-120.5 -191t-45 -261.5q0 -277 145.5 -437.5t390.5 -160.5q208 0 469 143q19 11 19 31v307h-283v84h367 q12 0 16 -4t4 -16v-625h-72l-24 150l-76 -41q-237 -129 -436 -129q-187 0 -331.5 91t-222 249t-77.5 356z" />
<glyph unicode="H" horiz-adv-x="1409" d="M172 0v1358h109v-602h847v602h109v-1358h-109v664h-847v-664h-109z" />
<glyph unicode="I" horiz-adv-x="473" d="M182 0v1358h109v-1358h-109z" />
<glyph unicode="J" horiz-adv-x="980" d="M41 80l25 59l108 -26q160 -41 264 -41q140 0 207 73q68 74 68 242v971h108v-985q0 -194 -98 -295q-98 -98 -285 -98q-186 0 -397 100z" />
<glyph unicode="K" horiz-adv-x="1249" d="M172 0v1358h109v-750l829 762l64 -65l-527 -482l578 -823h-95q-25 0 -38 18l-517 740q-178 -161 -294 -252v-506h-109z" />
<glyph unicode="L" horiz-adv-x="1032" d="M172 0v1358h109v-1270h694v-88h-803z" />
<glyph unicode="M" horiz-adv-x="1685" d="M172 0v1358h72q14 0 20 -2.5t15 -14.5l569 -778l569 778q12 17 33 17h63v-1358h-102v948q0 164 2 232q-57 -85 -137 -193l-387 -526h-64q-21 0 -34 16l-381 518q-98 132 -136 193q2 -68 2 -232v-956h-104z" />
<glyph unicode="N" horiz-adv-x="1490" d="M172 0v1358h59q15 0 21.5 -3.5t17.5 -15.5l813 -999q99 -122 140 -182q-6 111 -6 219v981h102v-1358h-64q-13 0 -19 2.5t-15 13.5l-811 998q-80 94 -140 182q6 -111 6 -219v-977h-104z" />
<glyph unicode="O" horiz-adv-x="1482" d="M86 678q0 139 47.5 266.5t131.5 223.5t208 153t268 57q192 0 343.5 -97.5t232 -256.5t80.5 -346t-80.5 -345.5t-232 -255.5t-343.5 -97q-144 0 -268 56.5t-208 152.5t-131.5 223t-47.5 266zM197 678q0 -266 150.5 -431t393.5 -165t394 165t151 431t-151 432t-394 166 t-393.5 -166t-150.5 -432z" />
<glyph unicode="P" horiz-adv-x="1214" d="M172 0v1358h477q251 0 367 -113q102 -99 102 -293q0 -113 -36.5 -214t-102.5 -163q-47 -44 -94.5 -59.5t-134.5 -15.5h-469v-500h-109zM281 586h479q63 0 101 14.5t65 50.5q84 111 84 297q0 159 -72 234q-85 88 -305 88h-352v-684z" />
<glyph unicode="Q" horiz-adv-x="1482" d="M86 678q0 139 47.5 266.5t131.5 223.5t208 153t268 57q192 0 343.5 -97.5t232 -256.5t80.5 -346q0 -213 -105 -387.5t-284 -255.5l227 -330l-96 -49l-226 346q-97 -22 -172 -22q-144 0 -268 56.5t-208 152.5t-131.5 223t-47.5 266zM197 678q0 -266 150.5 -431t393.5 -165 t394 165t151 431t-151 432t-394 166t-393.5 -166t-150.5 -432z" />
<glyph unicode="R" horiz-adv-x="1269" d="M172 0v1358h473q253 0 367 -111q102 -99 102 -295q0 -148 -61 -257.5t-174 -149.5l313 -545h-92q-22 0 -33 16l-283 498q-8 14 -13.5 17.5t-20.5 3.5h-469v-535h-109zM281 621h493q118 0 168 75q64 97 64 252q0 167 -78 242q-44 42 -115.5 61t-185.5 19h-346v-649z" />
<glyph unicode="S" horiz-adv-x="1134" d="M92 100l29 60l125 -37q162 -49 301 -49q177 0 272.5 82t95.5 217q0 105 -65 164.5t-227 119.5l-150 56q-190 70 -271 150.5t-81 199.5q0 149 119.5 232t316.5 83q92 0 203 -20t203 -55l-21 -64l-100 16q-172 27 -283 27q-338 0 -338 -217q0 -93 66 -148.5t221 -111.5 l145 -53q90 -33 152 -66t113.5 -78t76.5 -104t25 -135q0 -178 -132.5 -283.5t-338.5 -105.5q-108 0 -238 33.5t-219 86.5z" />
<glyph unicode="T" horiz-adv-x="1144" d="M51 1270v88h1043v-88h-467v-1270h-109v1270h-467z" />
<glyph unicode="U" horiz-adv-x="1390" d="M164 502v856h108v-838q0 -116 23.5 -192t75.5 -131q111 -117 325 -117q104 0 188.5 30.5t137.5 86.5q52 55 75 131t23 192v838h107v-858q0 -230 -117 -359q-70 -77 -176 -119t-238 -42q-268 0 -413 161q-119 131 -119 361z" />
<glyph unicode="V" horiz-adv-x="1341" d="M35 1358h92q22 0 29 -17l395 -913q90 -208 133 -330q47 132 127 326l377 917q8 17 29 17h90l-566 -1358h-94q-21 0 -29 16z" />
<glyph unicode="W" horiz-adv-x="2029" d="M55 1358h97q18 0 24 -17l318 -929q62 -182 92 -303q23 89 84 299l280 950h99q20 0 26 -17l311 -929q72 -213 93 -306q28 107 90 306l291 929q6 17 24 17h90l-434 -1358h-102q-22 0 -27 16l-301 899q-65 195 -100 332q-24 -109 -90 -336l-269 -911h-100q-22 0 -27 16z" />
<glyph unicode="X" horiz-adv-x="1286" d="M35 0l540 719l-491 639h102q19 0 31 -17l424 -550l412 550q8 11 13.5 14t20.5 3h97l-482 -641l549 -717h-102q-20 0 -31 14l-481 629l-467 -627q-11 -16 -31 -16h-104z" />
<glyph unicode="Y" horiz-adv-x="1187" d="M14 1358h95q20 0 30 -17l455 -792l457 790q11 19 34 19h91l-529 -901v-457h-108v457z" />
<glyph unicode="Z" horiz-adv-x="1118" d="M90 0v47q0 20 12 39l793 1184h-803v88h932v-51q0 -18 -12 -37l-793 -1182h821v-88h-950z" />
<glyph unicode="[" horiz-adv-x="587" d="M184 -469v1827h389v-88h-288v-1651h288v-88h-389z" />
<glyph unicode="\" horiz-adv-x="854" d="M33 1358h102l686 -1358h-102z" />
<glyph unicode="]" horiz-adv-x="587" d="M14 -381h289v1651h-289v88h389v-1827h-389v88z" />
<glyph unicode="^" horiz-adv-x="1064" d="M158 942l331 436h86l332 -436l-71 -49l-304 399l-303 -399z" />
<glyph unicode="_" horiz-adv-x="868" d="M14 -156h840v-75h-840v75z" />
<glyph unicode="`" horiz-adv-x="786" d="M162 1339l55 82q11 17 27 4l381 -280l-33 -45z" />
<glyph unicode="a" horiz-adv-x="1087" d="M96 311q0 100 60 160q73 76 239 76q50 0 246 -8l162 -7v119q0 137 -60 203q-66 72 -213 72q-109 0 -251 -45l-101 -31l-26 55q214 111 380 111q193 0 293 -109q82 -88 82 -254v-565l166 -22v-43q-67 -27 -125 -27q-120 0 -141 102l-51 -26q-169 -88 -303 -88 q-155 0 -256 95.5t-101 231.5zM203 313q0 -107 72 -174t198 -67q74 0 160.5 27t144.5 63q16 10 20.5 17.5t4.5 21.5v245q0 12 -4.5 15.5t-16.5 3.5h-391q-107 0 -147 -37q-41 -38 -41 -115z" />
<glyph unicode="b" horiz-adv-x="1157" d="M158 0v1452h104v-567l51 28q185 103 324 103q131 0 229.5 -69.5t148.5 -185.5t50 -261q0 -143 -51.5 -259.5t-151 -186.5t-229.5 -70q-140 0 -307 96l-70 41l-33 -121h-65zM262 223q0 -24 17 -35q78 -49 171 -80.5t173 -31.5q156 0 244.5 109t88.5 315q0 207 -87.5 315.5 t-241.5 108.5q-155 0 -348 -111q-17 -9 -17 -33v-557z" />
<glyph unicode="c" horiz-adv-x="1052" d="M90 504q0 140 61.5 257t172.5 186t249 69q121 0 228.5 -68.5t167.5 -189.5l-62 -37l-59 57q-80 78 -143 112t-140 34q-160 0 -263 -114t-103 -302q0 -203 99.5 -317.5t268.5 -114.5q128 0 264 65l119 56l37 -50q-221 -163 -430 -163q-139 0 -246.5 69t-164 187t-56.5 264 z" />
<glyph unicode="d" horiz-adv-x="1161" d="M92 500q0 225 132.5 370.5t324.5 145.5q167 0 350 -127v563h105v-1452h-68l-31 117l-76 -43q-161 -90 -303 -90q-131 0 -231 70t-151.5 186.5t-51.5 259.5zM201 500q0 -202 91 -313t243 -111q168 0 346 106q18 11 18 33v567q0 22 -18 35q-163 107 -320 107 q-173 0 -266.5 -113t-93.5 -311z" />
<glyph unicode="e" horiz-adv-x="1101" d="M90 500q0 220 131.5 368t335.5 148q128 0 231 -63t160.5 -171.5t57.5 -240.5q0 -35 -7.5 -47.5t-23.5 -12.5h-778q8 -181 105 -293t280 -112q128 0 272 67l104 50l35 -52q-215 -157 -420 -157q-217 0 -350 146.5t-133 369.5zM199 561h706q-9 174 -103 269.5t-245 95.5 t-248 -97.5t-110 -267.5z" />
<glyph unicode="f" horiz-adv-x="671" d="M4 918v53l191 26q-31 79 -31 162q0 140 93.5 224.5t240.5 84.5q137 0 272 -71l-22 -58l-48 13q-117 30 -194 30q-238 0 -238 -229q0 -75 27 -154h383v-81h-371v-918h-104v918h-199z" />
<glyph unicode="g" horiz-adv-x="1091" d="M37 -150q0 131 121 195q-31 28 -31 66q0 36 45 96l102 133q-68 53 -105.5 130.5t-37.5 166.5q0 159 111.5 269t287.5 110q156 0 271 -94l61 43q60 41 92.5 56t59.5 15q33 0 69 -18v-55l-217 -84q-17 -7 -8 -19q72 -101 72 -223q0 -159 -112 -269t-288 -110 q-101 0 -184 39q-10 5 -16 -4l-82 -139q-12 -21 -12 -31q0 -21 36 -21h430q177 0 256 -79q68 -68 68 -175q0 -149 -138 -249.5t-356 -100.5q-216 0 -355.5 100t-139.5 252zM137 -143q0 -120 108 -195.5t287 -75.5q174 0 283 74t109 195q0 74 -41 112q-54 49 -191 49h-354 q-109 0 -156 -41q-45 -42 -45 -118zM233 637q0 -136 79 -212.5t218 -76.5t218 76.5t79 212.5t-79 212.5t-218 76.5t-218 -76.5t-79 -212.5z" />
<glyph unicode="h" horiz-adv-x="1130" d="M158 0v1452h104v-534l49 22q171 76 299 76q91 0 168 -28.5t125 -78.5q86 -92 86 -260v-649h-104v629q0 83 -14 132.5t-46 84.5q-71 74 -227 74q-135 0 -281 -54l-32 -12q-15 -6 -19 -11.5t-4 -17.5v-825h-104z" />
<glyph unicode="i" horiz-adv-x="432" d="M156 1217v129h96q14 0 19 -5t5 -18v-106h-120zM164 0v999h104v-999h-104z" />
<glyph unicode="j" horiz-adv-x="432" d="M-129 -414l84 8q124 12 164 52q26 26 35.5 67.5t9.5 126.5v1159h104v-1181q0 -156 -67 -226q-66 -69 -199 -69q-66 0 -131 10v53zM156 1217v129h96q14 0 19 -5t5 -18v-106h-120z" />
<glyph unicode="k" horiz-adv-x="1081" d="M158 0v1452h104v-1024l674 584l57 -68l-385 -330l436 -614h-96q-24 0 -35 16l-376 535q-123 -108 -275 -219v-332h-104z" />
<glyph unicode="l" horiz-adv-x="473" d="M166 152v1300h104v-1360l187 -26v-43q-71 -27 -140 -27q-77 0 -114 37t-37 119z" />
<glyph unicode="m" horiz-adv-x="1800" d="M158 0v999h71l27 -84l55 25q168 76 283 76q194 0 301 -121l102 47q160 74 287 74q91 0 166 -28.5t123 -78.5q86 -92 86 -260v-649h-105v623q0 151 -61 221q-65 76 -217 76q-129 0 -266 -54l-47 -18q-19 -7 -23 -15t2 -18q27 -67 27 -166v-649h-105v623q0 151 -61 221 q-65 76 -217 76q-116 0 -267 -54l-34 -12q-23 -8 -23 -29v-825h-104z" />
<glyph unicode="n" horiz-adv-x="1130" d="M158 0v999h71l27 -84l55 25q171 76 299 76q91 0 168 -28.5t125 -78.5q86 -92 86 -260v-649h-104v629q0 83 -14 132.5t-46 84.5q-71 74 -227 74q-135 0 -281 -54l-32 -12q-15 -6 -19 -11.5t-4 -17.5v-825h-104z" />
<glyph unicode="o" horiz-adv-x="1130" d="M90 500q0 141 59 258.5t168.5 187.5t247.5 70t247.5 -70t168.5 -187.5t59 -258.5t-59 -258.5t-168.5 -187.5t-247.5 -70t-247.5 70t-168.5 187.5t-59 258.5zM199 500q0 -193 98 -307.5t268 -114.5q171 0 269 114.5t98 307.5t-98 307.5t-269 114.5q-170 0 -268 -114.5 t-98 -307.5z" />
<glyph unicode="p" horiz-adv-x="1157" d="M158 -469v1468h75l23 -118l57 32q185 103 324 103q131 0 229.5 -69.5t148.5 -185.5t50 -261q0 -143 -51.5 -259.5t-151 -186.5t-229.5 -70q-140 0 -307 96l-64 37v-586h-104zM262 223q0 -24 17 -35q78 -49 171 -80.5t173 -31.5q156 0 244.5 109t88.5 315 q0 207 -87.5 315.5t-241.5 108.5q-155 0 -348 -111q-17 -9 -17 -33v-557z" />
<glyph unicode="q" horiz-adv-x="1161" d="M92 500q0 225 132.5 370.5t324.5 145.5q164 0 352 -129l23 112h80v-1468h-105v582l-70 -39q-161 -90 -303 -90q-131 0 -231 70t-151.5 186.5t-51.5 259.5zM201 500q0 -202 91 -313t243 -111q168 0 346 106q18 11 18 33v567q0 22 -18 35q-163 107 -320 107 q-173 0 -266.5 -113t-93.5 -311z" />
<glyph unicode="r" horiz-adv-x="712" d="M158 0v999h78l22 -163q186 110 256.5 144t116.5 34q31 0 69 -15v-61q-169 -50 -417 -168q-21 -10 -21 -29v-741h-104z" />
<glyph unicode="s" horiz-adv-x="933" d="M80 88l26 55l80 -22q184 -51 293 -51q124 0 194 57.5t70 151.5q0 72 -47 111t-170 75l-159 47q-128 37 -194.5 97.5t-66.5 156.5q0 115 103 182.5t260 67.5q158 0 330 -68l-19 -57l-106 18q-120 21 -203 21q-74 0 -132 -14.5t-98 -52.5t-40 -95q0 -66 49.5 -103 t165.5 -71l147 -43q145 -42 210 -104t65 -166q0 -135 -101.5 -216t-261.5 -81q-96 0 -202.5 30t-192.5 74z" />
<glyph unicode="t" horiz-adv-x="788" d="M-4 918v53l199 28v289h104v-289h371v-81h-371v-644q0 -107 45 -157q44 -47 133 -47q64 0 182 34l68 19l25 -51q-64 -39 -144 -63.5t-145 -24.5q-133 0 -201 71q-67 70 -67 213v650h-199z" />
<glyph unicode="u" horiz-adv-x="1126" d="M141 350v649h105v-628q0 -83 14 -133t45 -84q73 -76 225 -76q130 0 279 55l33 12q14 6 18 11t4 18v825h105v-999h-72l-27 84l-55 -25q-169 -75 -297 -75q-91 0 -167 28t-124 78q-86 92 -86 260z" />
<glyph unicode="v" horiz-adv-x="1046" d="M14 999h90q18 0 25 -14l279 -610q43 -96 124 -287q105 249 123 289l269 608q7 14 24 14h84l-450 -999h-82q-20 0 -27 14z" />
<glyph unicode="w" horiz-adv-x="1656" d="M23 999h86q19 0 26 -16l240 -602q65 -169 104 -283q25 93 88 283l205 618h88q12 0 17.5 -3t9.5 -13l235 -602q71 -177 105 -283q32 108 94 283l211 604q3 8 7 11t17 3h78l-354 -999h-84q-22 0 -29 16l-223 570q-89 230 -117 319q-33 -113 -98 -313l-194 -592h-80 q-23 0 -31 16z" />
<glyph unicode="x" horiz-adv-x="1038" d="M35 0l416 526l-392 473h99q20 0 32 -14l328 -397l307 397q12 14 33 14h92l-375 -475l439 -524h-99q-18 0 -30 12l-375 451l-348 -451q-10 -12 -31 -12h-96z" />
<glyph unicode="y" horiz-adv-x="1046" d="M14 999h90q18 0 25 -14l403 -885l390 885q7 14 24 14h86l-659 -1472l-92 27l200 440z" />
<glyph unicode="z" horiz-adv-x="983" d="M109 0v39q0 20 12 37l624 842h-626v81h760v-38q0 -19 -13 -37l-626 -842h639v-82h-770z" />
<glyph unicode="{" horiz-adv-x="643" d="M111 416v61q122 20 169.5 69.5t47.5 145.5q0 62 -35 251.5t-35 254.5q0 83 55 131.5t152 48.5q72 0 178 -26v-45l-184 -19q-55 -5 -80 -25.5t-25 -66.5q0 -62 35 -253.5t35 -254.5q0 -89 -43.5 -148t-134.5 -94q91 -35 134.5 -93.5t43.5 -147.5q0 -63 -35 -254t-35 -254 q0 -46 25 -66.5t80 -25.5l184 -19v-45q-106 -26 -178 -26q-97 0 -152 48.5t-55 131.5q0 65 35 254.5t35 251.5q0 96 -47.5 145.5t-169.5 69.5z" />
<glyph unicode="|" horiz-adv-x="464" d="M184 -469v1921h97v-1921h-97z" />
<glyph unicode="}" horiz-adv-x="643" d="M0 -414l184 19q55 5 80 25.5t25 66.5q0 63 -35 254t-35 254q0 89 43.5 147.5t134.5 93.5q-91 35 -134.5 94t-43.5 148q0 63 35 254.5t35 253.5q0 46 -25 66.5t-80 25.5l-184 19v45q106 26 178 26q97 0 152 -48.5t55 -131.5q0 -65 -35 -254.5t-35 -251.5 q0 -96 47.5 -145.5t169.5 -69.5v-61q-122 -20 -169.5 -69.5t-47.5 -145.5q0 -62 35 -251.5t35 -254.5q0 -83 -55 -131.5t-152 -48.5q-72 0 -178 26v45z" />
<glyph unicode="~" horiz-adv-x="1064" d="M152 588q79 162 210 162q63 0 172 -45.5t158 -45.5q59 0 97.5 21t72.5 70l51 -17q-39 -77 -93 -119.5t-118 -42.5q-63 0 -172.5 46.5t-156.5 46.5q-58 0 -98 -21.5t-72 -71.5z" />
<glyph unicode="&#xa1;" horiz-adv-x="473" d="M168 881v118h137v-141h-110q-15 0 -21 5t-6 18zM182 135q0 137 8 246l21 283h49l21 -283q8 -107 8 -246v-493h-107v493z" />
<glyph unicode="&#xa2;" d="M164 504q0 201 123 346t313 162l12 192h70v-190q111 -9 207.5 -76.5t152.5 -179.5l-61 -37l-59 57q-69 67 -124 101t-116 41v-844q107 9 223 65l119 56l37 -50q-191 -142 -379 -159l-12 -201h-70v199q-131 7 -231 77t-152.5 185t-52.5 256zM270 508q0 -191 88.5 -303.5 t241.5 -126.5v844q-145 -14 -237.5 -126.5t-92.5 -287.5z" />
<glyph unicode="&#xa3;" d="M123 631v57l172 21q-64 190 -64 305q0 155 111 259.5t295 104.5q233 0 446 -176l-43 -53l-133 65q-136 68 -270 68q-143 0 -224 -69t-81 -201q0 -115 67 -303h459v-78h-432q47 -136 47 -221q0 -71 -25.5 -129t-91.5 -136l-49 -59h787v-86h-899v49q0 22 14 43l63 84 q60 79 80.5 126t20.5 101q0 89 -49 228h-201z" />
<glyph unicode="&#xa4;" d="M127 291l152 149q-66 104 -66 238q0 133 66 237l-152 150l63 63l144 -143q122 115 276 115q155 0 277 -115l143 143l64 -63l-152 -150q66 -104 66 -237q0 -134 -66 -238l152 -149l-64 -64l-143 144q-122 -115 -277 -115q-154 0 -276 115l-144 -144zM311 678 q0 -141 81 -236.5t218 -95.5t218 95.5t81 236.5t-81 236.5t-218 95.5t-218 -95.5t-81 -236.5z" />
<glyph unicode="&#xa5;" d="M35 1358h86q23 0 33 -17l456 -794l455 792q12 19 35 19h84l-494 -850h271v-78h-299v-106h299v-78h-299v-246h-105v246h-299v78h299v106h-299v78h268z" />
<glyph unicode="&#xa6;" horiz-adv-x="464" d="M184 387h97v-856h-97v856zM184 596v856h97v-856h-97z" />
<glyph unicode="&#xa7;" horiz-adv-x="1134" d="M125 492q0 155 156 315q-125 96 -125 246q0 95 57 169.5t153 114t214 39.5q185 0 354 -86l-21 -61l-112 28q-116 29 -223 29q-138 0 -229 -59.5t-91 -169.5q0 -103 69 -164.5t201 -110.5l164 -61q174 -65 247 -142t71 -188q0 -155 -156 -315q125 -96 125 -246 q0 -143 -124.5 -233.5t-305.5 -90.5q-79 0 -178.5 25t-182.5 66l25 57l113 -29q107 -28 225 -28q139 0 232.5 59.5t93.5 169.5q0 54 -20 97t-60 75.5t-83.5 55t-107.5 46.5l-164 62q-174 65 -246.5 142t-70.5 188zM223 506q0 -84 56.5 -144t205.5 -116l158 -60 q105 -42 154 -71q114 134 114 262q0 84 -56.5 144t-205.5 116l-157 59q-107 42 -152 70q-117 -137 -117 -260z" />
<glyph unicode="&#xa8;" horiz-adv-x="786" d="M150 1171v152h116q18 0 23.5 -4.5t5.5 -18.5v-129h-145zM492 1171v152h116q18 0 23.5 -4.5t5.5 -18.5v-129h-145z" />
<glyph unicode="&#xa9;" horiz-adv-x="1511" d="M61 680q0 143 54.5 272.5t147.5 222.5t221.5 148t271.5 55t271.5 -55t221 -148t147 -222.5t54.5 -272.5t-54.5 -272.5t-147 -222.5t-221 -148t-271.5 -55t-271.5 55t-221.5 148t-147.5 222.5t-54.5 272.5zM152 680q0 -170 78 -310t217 -221t309 -81t308.5 81t216 221 t77.5 310t-77.5 309.5t-216 220t-308.5 80.5t-309 -80.5t-217 -220t-78 -309.5zM467 682q0 131 89 219t210 88q81 0 144.5 -43t95.5 -112l-45 -31l-52 43q-44 37 -76.5 52t-74.5 15q-86 0 -147.5 -61.5t-61.5 -167.5q0 -99 57 -164t156 -65q69 0 172 41l53 20l29 -41 q-130 -96 -260 -96q-125 0 -207 85.5t-82 217.5z" />
<glyph unicode="&#xaa;" horiz-adv-x="950" d="M86 795q0 104 69.5 154t186.5 50q22 0 340 -12v92q0 209 -221 209q-98 0 -223 -41l-80 -26l-27 55q186 102 332 102q139 0 228 -76t89 -217v-460l125 -23v-45q-58 -20 -102 -20q-42 0 -76 25t-41 63l-49 -27q-130 -70 -250 -70t-210.5 75.5t-90.5 191.5zM186 801 q0 -89 62.5 -139t165.5 -50q112 0 241 70q17 9 22 16t5 21v184q0 19 -18 19h-322q-81 0 -118.5 -27t-37.5 -94z" />
<glyph unicode="&#xab;" horiz-adv-x="1157" d="M127 487v56l408 334l43 -46l-342 -327l342 -328l-43 -45l-390 320q-12 11 -15 17t-3 19zM580 487v56l407 334l43 -46l-342 -327l342 -328l-43 -45l-389 320q-12 11 -15 17t-3 19z" />
<glyph unicode="&#xac;" horiz-adv-x="1064" d="M168 641v84h727v-440h-84v356h-643z" />
<glyph unicode="&#xad;" horiz-adv-x="862" d="M143 459v84h576v-84h-576z" />
<glyph unicode="&#xae;" horiz-adv-x="1511" d="M61 680q0 143 54.5 272.5t147.5 222.5t221.5 148t271.5 55t271.5 -55t221 -148t147 -222.5t54.5 -272.5t-54.5 -272.5t-147 -222.5t-221 -148t-271.5 -55t-271.5 55t-221.5 148t-147.5 222.5t-54.5 272.5zM152 680q0 -170 78 -310t217 -221t309 -81t308.5 81t216 221 t77.5 310t-77.5 309.5t-216 220t-308.5 80.5t-309 -80.5t-217 -220t-78 -309.5zM539 387v594h223q109 0 161 -43.5t52 -134.5q0 -126 -119 -174l145 -242h-67q-16 0 -23 10l-127 215q-7 11 -20 11h-150v-236h-75zM614 690h205q33 0 51 21q29 32 29 90q0 65 -30.5 87.5 t-110.5 22.5h-144v-221z" />
<glyph unicode="&#xaf;" horiz-adv-x="786" d="M100 1182v82h584v-82h-584z" />
<glyph unicode="&#xb0;" horiz-adv-x="847" d="M98 1049q0 141 94 235t232 94t232 -94t94 -235t-94 -235.5t-232 -94.5t-232 94.5t-94 235.5zM197 1049q0 -117 64 -179.5t163 -62.5t163 62.5t64 179.5q0 116 -64 178.5t-163 62.5t-163 -62.5t-64 -178.5z" />
<glyph unicode="&#xb1;" horiz-adv-x="1064" d="M168 0v84h727v-84h-727zM168 598v84h321v317h84v-317h322v-84h-322v-315h-84v315h-321z" />
<glyph unicode="&#xb2;" horiz-adv-x="835" d="M152 1307q128 71 239 71q102 0 164.5 -54.5t62.5 -143.5q0 -67 -40.5 -127.5t-135.5 -149.5l-153 -143h350v-72h-459v37q0 16 4.5 24.5t18.5 22.5l227 227q54 54 77 96.5t23 86.5q0 58 -37 89.5t-100 31.5q-66 0 -172 -35l-45 -15z" />
<glyph unicode="&#xb3;" horiz-adv-x="835" d="M154 764l28 51l74 -27q93 -34 162 -34q79 0 117 36.5t38 94.5q0 55 -31.5 78.5t-105.5 23.5h-69q-17 0 -17 12v56h129q28 0 43 20q31 42 31 99q0 58 -33.5 93.5t-97.5 35.5q-56 0 -141 -29l-74 -27l-29 51q136 80 244 80q91 0 153 -51.5t62 -136.5q0 -86 -70 -162 q46 -20 71.5 -59.5t25.5 -87.5q0 -89 -68.5 -146t-177.5 -57q-66 0 -139.5 24t-124.5 62z" />
<glyph unicode="&#xb4;" horiz-adv-x="786" d="M162 1145l381 280q16 11 26 -4l56 -82l-430 -239z" />
<glyph unicode="&#xb5;" horiz-adv-x="1142" d="M158 -469v1468h104v-628q0 -83 14 -132.5t46 -84.5q71 -74 225 -74q135 0 278 53l33 12q15 6 19 11.5t4 17.5v825h104v-999h-72l-26 84l-56 -25q-169 -75 -296 -75q-172 0 -273 88v-541h-104z" />
<glyph unicode="&#xb6;" horiz-adv-x="1028" d="M102 930v428h885v-88h-190v-1739h-97v1739h-135v-1739h-96v1374h-340q-27 0 -27 25z" />
<glyph unicode="&#xb7;" horiz-adv-x="419" d="M139 502v145h115q17 0 22 -4t5 -18v-123h-142z" />
<glyph unicode="&#xb8;" horiz-adv-x="786" d="M223 -365l135 29q103 22 103 66q0 23 -36 43.5t-79 34t-79 39t-36 57.5q0 62 97 149l43 -14q-45 -62 -45 -98q0 -18 24.5 -33.5t59 -29t69.5 -29.5t59.5 -43.5t24.5 -63.5q0 -72 -81.5 -117.5t-243.5 -52.5z" />
<glyph unicode="&#xb9;" horiz-adv-x="835" d="M182 1251l226 109q20 10 41 10h36v-610h154v-72h-424v72h180v508l-184 -78z" />
<glyph unicode="&#xba;" horiz-adv-x="950" d="M74 954q0 182 114.5 303t286.5 121q170 0 284.5 -121.5t114.5 -302.5t-114.5 -302.5t-284.5 -121.5q-172 0 -286.5 121t-114.5 303zM176 954q0 -151 78.5 -242t220.5 -91q140 0 218.5 91t78.5 242q0 149 -78.5 240.5t-218.5 91.5q-142 0 -220.5 -91t-78.5 -241z" />
<glyph unicode="&#xbb;" horiz-adv-x="1157" d="M127 176l342 328l-342 327l43 46l389 -320q12 -11 15.5 -17.5t3.5 -19.5v-55l-408 -334zM580 176l342 328l-342 327l43 46l389 -320q12 -10 15 -16.5t3 -20.5v-55l-407 -334z" />
<glyph unicode="&#xbc;" horiz-adv-x="1720" d="M158 1249l225 109q20 10 41 10h37v-610h153v-72h-424v72h181v508l-185 -78zM510 0l676 1358h100l-674 -1358h-102zM1008 178v35q0 20 16 43l315 403q18 23 39 23h76v-432h109v-72h-109v-178h-88v178h-358zM1110 250h256v330z" />
<glyph unicode="&#xbd;" horiz-adv-x="1720" d="M152 1249l225 109q20 10 41 10h37v-610h153v-72h-424v72h181v508l-185 -78zM500 0l676 1358h100l-674 -1358h-102zM1094 618q130 72 239 72q102 0 165 -54.5t63 -143.5q0 -67 -40.5 -127.5t-136.5 -149.5l-153 -143h350v-72h-459v37q0 16 4.5 24.5t18.5 22.5l227 227 q55 55 78 97.5t23 85.5q0 57 -37.5 88.5t-100.5 31.5q-69 0 -172 -34l-45 -15z" />
<glyph unicode="&#xbe;" horiz-adv-x="1720" d="M158 762l28 51l74 -27q93 -34 162 -34q79 0 117.5 36.5t38.5 94.5q0 55 -32 78.5t-106 23.5h-69q-17 0 -17 12v56h129q28 0 43 20q31 42 31 98q0 58 -33.5 93.5t-97.5 35.5q-59 0 -141 -28l-74 -27l-29 51q136 80 244 80q91 0 153 -51.5t62 -136.5q0 -86 -70 -162 q46 -20 71.5 -59.5t25.5 -87.5q0 -89 -68.5 -146t-177.5 -57q-66 0 -139.5 24t-124.5 62zM520 0l676 1358h100l-673 -1358h-103zM1006 178v35q0 20 16 43l315 403q18 23 39 23h76v-432h109v-72h-109v-178h-88v178h-358zM1108 250h256v330z" />
<glyph unicode="&#xbf;" horiz-adv-x="956" d="M66 -31q0 121 72.5 212.5t242.5 178.5l121 62l20 227h51l17 -131q6 -52 6 -82q0 -28 -11 -44.5t-40 -31.5l-64 -34q-84 -47 -135.5 -81t-96 -76.5t-64 -90.5t-19.5 -107q0 -132 85 -201t226 -69q116 0 293 55l119 37l26 -55q-108 -61 -225.5 -96t-214.5 -35 q-179 0 -294 100t-115 262zM483 866v119h138v-141h-111q-15 0 -21 4.5t-6 17.5z" />
<glyph unicode="&#xc0;" horiz-adv-x="1347" d="M43 0l567 1358h90q21 0 29 -19l578 -1339h-93q-20 0 -28 16l-146 342h-737l-141 -342q-4 -10 -9.5 -13t-17.5 -3h-92zM340 446h661l-200 476q-117 281 -135 333q-44 -125 -129 -329zM420 1724l55 82q11 17 27 4l381 -280l-33 -45z" />
<glyph unicode="&#xc1;" horiz-adv-x="1347" d="M43 0l567 1358h90q21 0 29 -19l578 -1339h-93q-20 0 -28 16l-146 342h-737l-141 -342q-4 -10 -9.5 -13t-17.5 -3h-92zM340 446h661l-200 476q-117 281 -135 333q-44 -125 -129 -329zM461 1530l381 280q16 11 26 -4l56 -82l-430 -239z" />
<glyph unicode="&#xc2;" horiz-adv-x="1347" d="M43 0l567 1358h90q21 0 29 -19l578 -1339h-93q-20 0 -28 16l-146 342h-737l-141 -342q-4 -10 -9.5 -13t-17.5 -3h-92zM340 446h661l-200 476q-117 281 -135 333q-44 -125 -129 -329zM362 1497l252 266q17 17 41 17h25q22 0 39 -17l256 -266l-39 -37l-264 217h-6 l-265 -217z" />
<glyph unicode="&#xc3;" horiz-adv-x="1347" d="M43 0l567 1358h90q21 0 29 -19l578 -1339h-93q-20 0 -28 16l-146 342h-737l-141 -342q-4 -10 -9.5 -13t-17.5 -3h-92zM340 446h661l-200 476q-117 281 -135 333q-44 -125 -129 -329zM350 1538q26 79 73 120.5t109 41.5q44 0 140 -44t139 -44q71 0 119 90l53 -19 q-26 -78 -73 -119.5t-109 -41.5q-44 0 -140 44t-139 44q-75 0 -119 -88z" />
<glyph unicode="&#xc4;" horiz-adv-x="1347" d="M43 0l567 1358h90q21 0 29 -19l578 -1339h-93q-20 0 -28 16l-146 342h-737l-141 -342q-4 -10 -9.5 -13t-17.5 -3h-92zM340 446h661l-200 476q-117 281 -135 333q-44 -125 -129 -329zM422 1540v152h117q18 0 23 -4.5t5 -18.5v-129h-145zM764 1540v152h117q18 0 23 -4.5 t5 -18.5v-129h-145z" />
<glyph unicode="&#xc5;" horiz-adv-x="1347" d="M43 0l559 1339q-59 21 -97 71.5t-38 117.5q0 87 60.5 141.5t140.5 54.5q82 0 141 -54t59 -142q0 -69 -40 -119t-99 -68l578 -1341h-93q-20 0 -28 16l-146 342h-737l-141 -342q-4 -10 -9.5 -13t-17.5 -3h-92zM340 446h661l-200 476q-117 281 -135 333q-44 -125 -129 -329z M549 1528q0 -55 31.5 -87t87.5 -32t87 32t31 87q0 56 -30.5 87.5t-87.5 31.5t-88 -31.5t-31 -87.5z" />
<glyph unicode="&#xc6;" horiz-adv-x="1869" d="M23 0l884 1358h848v-88h-702v-516h635v-88h-635v-578h727v-88h-836v360h-569l-219 -337q-10 -17 -16.5 -20t-24.5 -3h-92zM426 446h518v797z" />
<glyph unicode="&#xc7;" horiz-adv-x="1351" d="M86 678q0 195 84 355.5t231 252.5t324 92q174 0 312 -90.5t223 -251.5l-66 -39l-104 107q-83 86 -170 131t-193 45q-154 0 -275.5 -77t-188 -214t-66.5 -309q0 -269 143.5 -433.5t394.5 -164.5q163 0 359 104l137 74l43 -55q-117 -102 -261 -162t-290 -63q-8 -19 -8 -39 q0 -18 24.5 -33.5t59.5 -29t69.5 -29.5t59 -43.5t24.5 -63.5q0 -72 -81.5 -117.5t-243.5 -52.5l-15 63l136 29q102 22 102 66q0 23 -36 43.5t-78.5 34t-78.5 39t-36 57.5q0 39 30 80q-166 15 -294 106t-199.5 244t-71.5 344z" />
<glyph unicode="&#xc8;" horiz-adv-x="1097" d="M172 0v1358h811v-88h-702v-516h634v-88h-634v-578h727v-88h-836zM350 1724l56 82q11 16 26 4l381 -280l-33 -45z" />
<glyph unicode="&#xc9;" horiz-adv-x="1097" d="M172 0v1358h811v-88h-702v-516h634v-88h-634v-578h727v-88h-836zM373 1530l381 280q16 11 26 -4l56 -82l-430 -239z" />
<glyph unicode="&#xca;" horiz-adv-x="1097" d="M172 0v1358h811v-88h-702v-516h634v-88h-634v-578h727v-88h-836zM287 1497l252 266q17 17 41 17h24q22 0 39 -17l256 -266l-39 -37l-264 217h-6l-264 -217z" />
<glyph unicode="&#xcb;" horiz-adv-x="1097" d="M172 0v1358h811v-88h-702v-516h634v-88h-634v-578h727v-88h-836zM336 1540v152h117q18 0 23 -4.5t5 -18.5v-129h-145zM678 1540v152h117q18 0 23 -4.5t5 -18.5v-129h-145z" />
<glyph unicode="&#xcc;" horiz-adv-x="473" d="M4 1724l55 82q11 17 27 4l381 -280l-33 -45zM182 0v1358h109v-1358h-109z" />
<glyph unicode="&#xcd;" horiz-adv-x="473" d="M33 1530l381 280q16 11 26 -4l56 -82l-430 -239zM182 0v1358h109v-1358h-109z" />
<glyph unicode="&#xce;" horiz-adv-x="473" d="M-68 1497l252 266q17 17 41 17h25q22 0 39 -17l256 -266l-39 -37l-264 217h-6l-265 -217zM182 0v1358h109v-1358h-109z" />
<glyph unicode="&#xcf;" horiz-adv-x="473" d="M-4 1540v152h117q18 0 23 -4.5t5 -18.5v-129h-145zM182 0v1358h109v-1358h-109zM338 1540v152h117q18 0 23 -4.5t5 -18.5v-129h-145z" />
<glyph unicode="&#xd0;" horiz-adv-x="1454" d="M20 655v84h191v619h383q348 0 536 -133q238 -168 238 -545q0 -379 -238 -547q-188 -133 -536 -133h-383v655h-191zM319 90h248q345 0 506 121q184 140 184 469q0 327 -184 467q-161 121 -506 121h-248v-529h347v-84h-347v-565z" />
<glyph unicode="&#xd1;" horiz-adv-x="1490" d="M172 0v1358h59q15 0 21.5 -3.5t17.5 -15.5l813 -999q99 -122 140 -182q-6 111 -6 219v981h102v-1358h-64q-13 0 -19 2.5t-15 13.5l-811 998q-80 94 -140 182q6 -111 6 -219v-977h-104zM434 1538q26 79 73 120.5t109 41.5q44 0 140 -44t139 -44q71 0 119 90l53 -19 q-26 -78 -73 -119.5t-109 -41.5q-44 0 -140 44t-139 44q-75 0 -119 -88z" />
<glyph unicode="&#xd2;" horiz-adv-x="1482" d="M86 678q0 139 47.5 266.5t131.5 223.5t208 153t268 57q192 0 343.5 -97.5t232 -256.5t80.5 -346t-80.5 -345.5t-232 -255.5t-343.5 -97q-144 0 -268 56.5t-208 152.5t-131.5 223t-47.5 266zM197 678q0 -266 150.5 -431t393.5 -165t394 165t151 431t-151 432t-394 166 t-393.5 -166t-150.5 -432zM487 1724l56 82q11 16 26 4l381 -280l-32 -45z" />
<glyph unicode="&#xd3;" horiz-adv-x="1482" d="M86 678q0 139 47.5 266.5t131.5 223.5t208 153t268 57q192 0 343.5 -97.5t232 -256.5t80.5 -346t-80.5 -345.5t-232 -255.5t-343.5 -97q-144 0 -268 56.5t-208 152.5t-131.5 223t-47.5 266zM197 678q0 -266 150.5 -431t393.5 -165t394 165t151 431t-151 432t-394 166 t-393.5 -166t-150.5 -432zM528 1530l381 280q17 11 27 -4l55 -82l-430 -239z" />
<glyph unicode="&#xd4;" horiz-adv-x="1482" d="M86 678q0 139 47.5 266.5t131.5 223.5t208 153t268 57q192 0 343.5 -97.5t232 -256.5t80.5 -346t-80.5 -345.5t-232 -255.5t-343.5 -97q-144 0 -268 56.5t-208 152.5t-131.5 223t-47.5 266zM197 678q0 -266 150.5 -431t393.5 -165t394 165t151 431t-151 432t-394 166 t-393.5 -166t-150.5 -432zM434 1497l252 266q17 17 41 17h25q22 0 39 -17l256 -266l-39 -37l-265 217h-6l-264 -217z" />
<glyph unicode="&#xd5;" horiz-adv-x="1482" d="M86 678q0 139 47.5 266.5t131.5 223.5t208 153t268 57q192 0 343.5 -97.5t232 -256.5t80.5 -346t-80.5 -345.5t-232 -255.5t-343.5 -97q-144 0 -268 56.5t-208 152.5t-131.5 223t-47.5 266zM197 678q0 -266 150.5 -431t393.5 -165t394 165t151 431t-151 432t-394 166 t-393.5 -166t-150.5 -432zM426 1538q26 79 73 120.5t109 41.5q44 0 140 -44t139 -44q71 0 119 90l53 -19q-26 -78 -73 -119.5t-109 -41.5q-44 0 -140 44t-139 44q-75 0 -119 -88z" />
<glyph unicode="&#xd6;" horiz-adv-x="1482" d="M86 678q0 139 47.5 266.5t131.5 223.5t208 153t268 57q192 0 343.5 -97.5t232 -256.5t80.5 -346t-80.5 -345.5t-232 -255.5t-343.5 -97q-144 0 -268 56.5t-208 152.5t-131.5 223t-47.5 266zM197 678q0 -266 150.5 -431t393.5 -165t394 165t151 431t-151 432t-394 166 t-393.5 -166t-150.5 -432zM496 1540v152h116q18 0 23.5 -4.5t5.5 -18.5v-129h-145zM838 1540v152h116q18 0 23.5 -4.5t5.5 -18.5v-129h-145z" />
<glyph unicode="&#xd7;" horiz-adv-x="1064" d="M246 276l227 228l-227 227l59 60l227 -228l228 228l59 -60l-227 -227l227 -228l-59 -59l-228 227l-227 -227z" />
<glyph unicode="&#xd8;" horiz-adv-x="1482" d="M86 678q0 139 47.5 266.5t131.5 223.5t208 153t268 57q213 0 373 -116l131 178l78 -51l-139 -187q101 -98 157 -235t56 -289q0 -187 -80.5 -345.5t-232 -255.5t-343.5 -97q-211 0 -372 114l-136 -184l-77 51l141 193q-101 98 -156 234t-55 290zM197 678 q0 -133 42.5 -246.5t118.5 -193.5l695 940q-138 98 -312 98q-243 0 -393.5 -166t-150.5 -432zM430 176q134 -94 311 -94q243 0 394 165t151 431t-164 440z" />
<glyph unicode="&#xd9;" horiz-adv-x="1390" d="M164 502v856h108v-838q0 -116 23.5 -192t75.5 -131q111 -117 325 -117q104 0 188.5 30.5t137.5 86.5q52 55 75 131t23 192v838h107v-858q0 -230 -117 -359q-70 -77 -176 -119t-238 -42q-268 0 -413 161q-119 131 -119 361zM428 1724l55 82q11 17 27 4l381 -280l-33 -45z " />
<glyph unicode="&#xda;" horiz-adv-x="1390" d="M164 502v856h108v-838q0 -116 23.5 -192t75.5 -131q111 -117 325 -117q104 0 188.5 30.5t137.5 86.5q52 55 75 131t23 192v838h107v-858q0 -230 -117 -359q-70 -77 -176 -119t-238 -42q-268 0 -413 161q-119 131 -119 361zM512 1530l381 280q17 11 27 -4l55 -82 l-430 -239z" />
<glyph unicode="&#xdb;" horiz-adv-x="1390" d="M164 502v856h108v-838q0 -116 23.5 -192t75.5 -131q111 -117 325 -117q104 0 188.5 30.5t137.5 86.5q52 55 75 131t23 192v838h107v-858q0 -230 -117 -359q-70 -77 -176 -119t-238 -42q-268 0 -413 161q-119 131 -119 361zM391 1497l252 266q17 17 41 17h25q22 0 39 -17 l256 -266l-39 -37l-265 217h-6l-264 -217z" />
<glyph unicode="&#xdc;" horiz-adv-x="1390" d="M164 502v856h108v-838q0 -116 23.5 -192t75.5 -131q111 -117 325 -117q104 0 188.5 30.5t137.5 86.5q52 55 75 131t23 192v838h107v-858q0 -230 -117 -359q-70 -77 -176 -119t-238 -42q-268 0 -413 161q-119 131 -119 361zM451 1540v152h116q18 0 23.5 -4.5t5.5 -18.5 v-129h-145zM793 1540v152h116q18 0 23.5 -4.5t5.5 -18.5v-129h-145z" />
<glyph unicode="&#xdd;" horiz-adv-x="1187" d="M14 1358h95q20 0 30 -17l455 -792l457 790q11 19 34 19h91l-529 -901v-457h-108v457zM424 1530l381 280q16 11 26 -4l56 -82l-430 -239z" />
<glyph unicode="&#xde;" horiz-adv-x="1216" d="M172 0v1358h109v-244h366q251 0 367 -113q104 -101 104 -292q0 -113 -36.5 -214t-102.5 -163q-47 -44 -95 -60t-134 -16h-469v-256h-109zM281 344h479q62 0 100.5 15t65.5 51q84 111 84 295q0 156 -72 231q-44 46 -116.5 66t-188.5 20h-352v-678z" />
<glyph unicode="&#xdf;" horiz-adv-x="1282" d="M4 918v53l199 28q0 214 128 340.5t351 126.5q144 0 248 -75.5t104 -200.5q0 -84 -45.5 -138.5t-142.5 -113.5l-148 -88q-55 -33 -78.5 -60t-23.5 -59q0 -47 47.5 -76.5t171.5 -72.5l100 -35q143 -50 210 -109t67 -162q0 -132 -101.5 -212t-261.5 -80q-178 0 -378 92 l24 55l100 -25q147 -36 254 -36q127 0 196 56t69 144q0 39 -11.5 67t-41 49.5t-65 37.5t-97.5 37l-107 37q-150 53 -210 100t-60 123q0 60 45 110t143 111l94 57q87 54 120.5 95t33.5 98q0 87 -75 135.5t-185 48.5q-193 0 -285 -106q-86 -99 -86 -287v-983h-104v918h-199z " />
<glyph unicode="&#xe0;" horiz-adv-x="1087" d="M96 311q0 100 60 160q73 76 239 76q50 0 246 -8l162 -7v119q0 137 -60 203q-66 72 -213 72q-109 0 -251 -45l-101 -31l-26 55q214 111 380 111q193 0 293 -109q82 -88 82 -254v-565l166 -22v-43q-67 -27 -125 -27q-120 0 -141 102l-51 -26q-169 -88 -303 -88 q-155 0 -256 95.5t-101 231.5zM203 313q0 -107 72 -174t198 -67q74 0 160.5 27t144.5 63q16 10 20.5 17.5t4.5 21.5v245q0 12 -4.5 15.5t-16.5 3.5h-391q-107 0 -147 -37q-41 -38 -41 -115zM285 1339l55 82q11 17 27 4l381 -280l-33 -45z" />
<glyph unicode="&#xe1;" horiz-adv-x="1087" d="M96 311q0 100 60 160q73 76 239 76q50 0 246 -8l162 -7v119q0 137 -60 203q-66 72 -213 72q-109 0 -251 -45l-101 -31l-26 55q214 111 380 111q193 0 293 -109q82 -88 82 -254v-565l166 -22v-43q-67 -27 -125 -27q-120 0 -141 102l-51 -26q-169 -88 -303 -88 q-155 0 -256 95.5t-101 231.5zM203 313q0 -107 72 -174t198 -67q74 0 160.5 27t144.5 63q16 10 20.5 17.5t4.5 21.5v245q0 12 -4.5 15.5t-16.5 3.5h-391q-107 0 -147 -37q-41 -38 -41 -115zM326 1145l381 280q16 11 26 -4l55 -82l-430 -239z" />
<glyph unicode="&#xe2;" horiz-adv-x="1087" d="M96 311q0 100 60 160q73 76 239 76q50 0 246 -8l162 -7v119q0 137 -60 203q-66 72 -213 72q-109 0 -251 -45l-101 -31l-26 55q214 111 380 111q193 0 293 -109q82 -88 82 -254v-565l166 -22v-43q-67 -27 -125 -27q-120 0 -141 102l-51 -26q-169 -88 -303 -88 q-155 0 -256 95.5t-101 231.5zM203 313q0 -107 72 -174t198 -67q74 0 160.5 27t144.5 63q16 10 20.5 17.5t4.5 21.5v245q0 12 -4.5 15.5t-16.5 3.5h-391q-107 0 -147 -37q-41 -38 -41 -115zM223 1149l252 266q17 17 41 17h25q22 0 39 -17l256 -266l-39 -37l-265 217h-6 l-264 -217z" />
<glyph unicode="&#xe3;" horiz-adv-x="1087" d="M96 311q0 100 60 160q73 76 239 76q50 0 246 -8l162 -7v119q0 137 -60 203q-66 72 -213 72q-109 0 -251 -45l-101 -31l-26 55q214 111 380 111q193 0 293 -109q82 -88 82 -254v-565l166 -22v-43q-67 -27 -125 -27q-120 0 -141 102l-51 -26q-169 -88 -303 -88 q-155 0 -256 95.5t-101 231.5zM203 313q0 -107 72 -174t198 -67q74 0 160.5 27t144.5 63q16 10 20.5 17.5t4.5 21.5v245q0 12 -4.5 15.5t-16.5 3.5h-391q-107 0 -147 -37q-41 -38 -41 -115zM211 1190q26 79 73 120.5t109 41.5q44 0 140 -44t139 -44q71 0 119 90l53 -19 q-26 -78 -73 -119.5t-109 -41.5q-44 0 -140 44t-139 44q-75 0 -119 -88z" />
<glyph unicode="&#xe4;" horiz-adv-x="1087" d="M96 311q0 100 60 160q73 76 239 76q50 0 246 -8l162 -7v119q0 137 -60 203q-66 72 -213 72q-109 0 -251 -45l-101 -31l-26 55q214 111 380 111q193 0 293 -109q82 -88 82 -254v-565l166 -22v-43q-67 -27 -125 -27q-120 0 -141 102l-51 -26q-169 -88 -303 -88 q-155 0 -256 95.5t-101 231.5zM203 313q0 -107 72 -174t198 -67q74 0 160.5 27t144.5 63q16 10 20.5 17.5t4.5 21.5v245q0 12 -4.5 15.5t-16.5 3.5h-391q-107 0 -147 -37q-41 -38 -41 -115zM283 1171v152h116q18 0 23.5 -4.5t5.5 -18.5v-129h-145zM625 1171v152h116 q18 0 23.5 -4.5t5.5 -18.5v-129h-145z" />
<glyph unicode="&#xe5;" horiz-adv-x="1087" d="M96 311q0 100 60 160q73 76 239 76q50 0 246 -8l162 -7v119q0 137 -60 203q-66 72 -213 72q-109 0 -251 -45l-101 -31l-26 55q214 111 380 111q193 0 293 -109q82 -88 82 -254v-565l166 -22v-43q-67 -27 -125 -27q-120 0 -141 102l-51 -26q-169 -88 -303 -88 q-155 0 -256 95.5t-101 231.5zM203 313q0 -107 72 -174t198 -67q74 0 160.5 27t144.5 63q16 10 20.5 17.5t4.5 21.5v245q0 12 -4.5 15.5t-16.5 3.5h-391q-107 0 -147 -37q-41 -38 -41 -115zM332 1327q0 87 60 142t140 55q82 0 141.5 -54.5t59.5 -142.5t-59.5 -142.5 t-141.5 -54.5q-80 0 -140 55t-60 142zM414 1327q0 -55 31 -87t87 -32t87.5 32t31.5 87q0 56 -31 87.5t-88 31.5t-87.5 -31.5t-30.5 -87.5z" />
<glyph unicode="&#xe6;" horiz-adv-x="1812" d="M96 311q0 100 60 160q73 76 239 76q50 0 246 -8l162 -7v119q0 137 -60 203q-66 72 -213 72q-109 0 -251 -45l-101 -31l-26 55q214 111 380 111q76 0 143.5 -20.5t125.5 -71.5t80 -127q62 103 163 161t224 58q193 0 320.5 -137t127.5 -338q0 -35 -7 -47.5t-23 -12.5h-779 q8 -181 105 -293t280 -112q129 0 273 67l104 50l35 -52q-215 -157 -420 -157q-235 0 -369 163l-92 -53q-188 -110 -356 -110t-268 94q-103 92 -103 233zM203 313q0 -106 73.5 -173.5t200.5 -67.5q182 0 397 139q-58 101 -73 235q-1 12 -6 15.5t-19 3.5h-385q-107 0 -147 -37 q-41 -38 -41 -115zM909 561h707q-9 174 -103 269.5t-245 95.5t-248.5 -97.5t-110.5 -267.5z" />
<glyph unicode="&#xe7;" horiz-adv-x="1052" d="M90 504q0 140 61.5 257t172.5 186t249 69q121 0 228.5 -68.5t167.5 -189.5l-62 -37l-59 57q-80 78 -143 112t-140 34q-160 0 -263 -114t-103 -302q0 -203 99.5 -317.5t268.5 -114.5q128 0 264 65l119 56l37 -50q-221 -163 -434 -163q-10 -23 -10 -43q0 -18 24.5 -33.5 t59.5 -29t69.5 -29.5t59 -43.5t24.5 -63.5q0 -72 -81.5 -117.5t-243.5 -52.5l-15 63l135 29q103 22 103 66q0 23 -36 43.5t-78.5 34t-78.5 39t-36 57.5q0 43 34 86q-179 26 -286 168.5t-107 345.5z" />
<glyph unicode="&#xe8;" horiz-adv-x="1101" d="M90 500q0 220 131.5 368t335.5 148q128 0 231 -63t160.5 -171.5t57.5 -240.5q0 -35 -7.5 -47.5t-23.5 -12.5h-778q8 -181 105 -293t280 -112q128 0 272 67l104 50l35 -52q-215 -157 -420 -157q-217 0 -350 146.5t-133 369.5zM199 561h706q-9 174 -103 269.5t-245 95.5 t-248 -97.5t-110 -267.5zM336 1339l55 82q11 17 27 4l381 -280l-33 -45z" />
<glyph unicode="&#xe9;" horiz-adv-x="1101" d="M90 500q0 220 131.5 368t335.5 148q128 0 231 -63t160.5 -171.5t57.5 -240.5q0 -35 -7.5 -47.5t-23.5 -12.5h-778q8 -181 105 -293t280 -112q128 0 272 67l104 50l35 -52q-215 -157 -420 -157q-217 0 -350 146.5t-133 369.5zM199 561h706q-9 174 -103 269.5t-245 95.5 t-248 -97.5t-110 -267.5zM342 1145l381 280q17 11 27 -4l55 -82l-430 -239z" />
<glyph unicode="&#xea;" horiz-adv-x="1101" d="M90 500q0 220 131.5 368t335.5 148q128 0 231 -63t160.5 -171.5t57.5 -240.5q0 -35 -7.5 -47.5t-23.5 -12.5h-778q8 -181 105 -293t280 -112q128 0 272 67l104 50l35 -52q-215 -157 -420 -157q-217 0 -350 146.5t-133 369.5zM199 561h706q-9 174 -103 269.5t-245 95.5 t-248 -97.5t-110 -267.5zM254 1149l252 266q17 17 41 17h24q22 0 39 -17l256 -266l-39 -37l-264 217h-6l-264 -217z" />
<glyph unicode="&#xeb;" horiz-adv-x="1101" d="M90 500q0 220 131.5 368t335.5 148q128 0 231 -63t160.5 -171.5t57.5 -240.5q0 -35 -7.5 -47.5t-23.5 -12.5h-778q8 -181 105 -293t280 -112q128 0 272 67l104 50l35 -52q-215 -157 -420 -157q-217 0 -350 146.5t-133 369.5zM199 561h706q-9 174 -103 269.5t-245 95.5 t-248 -97.5t-110 -267.5zM315 1171v152h117q18 0 23.5 -4.5t5.5 -18.5v-129h-146zM657 1171v152h117q18 0 23.5 -4.5t5.5 -18.5v-129h-146z" />
<glyph unicode="&#xec;" horiz-adv-x="432" d="M-45 1339l55 82q11 17 27 4l381 -280l-33 -45zM164 0v999h104v-999h-104z" />
<glyph unicode="&#xed;" horiz-adv-x="432" d="M16 1145l381 280q17 11 27 -4l55 -82l-430 -239zM164 0v999h104v-999h-104z" />
<glyph unicode="&#xee;" horiz-adv-x="432" d="M-88 1149l252 266q17 17 41 17h24q22 0 39 -17l256 -266l-39 -37l-264 217h-6l-264 -217zM164 0v999h104v-999h-104z" />
<glyph unicode="&#xef;" horiz-adv-x="434" d="M-25 1171v152h117q18 0 23.5 -4.5t5.5 -18.5v-129h-146zM166 0v999h104v-999h-104zM317 1171v152h117q18 0 23.5 -4.5t5.5 -18.5v-129h-146z" />
<glyph unicode="&#xf0;" horiz-adv-x="1132" d="M98 485q0 137 62 244.5t164 164t223 56.5q89 0 182 -27.5t166 -74.5q-69 212 -256 371l-252 -113l-35 70l217 98q-75 58 -264 160l33 53q196 -85 315 -176l271 119l34 -70l-235 -105q307 -265 307 -680q0 -166 -53 -298t-161.5 -212.5t-256.5 -80.5q-202 0 -331.5 141.5 t-129.5 359.5zM205 489q0 -190 94.5 -302.5t261.5 -112.5q77 0 139 25.5t103.5 69.5t69.5 106.5t40.5 134.5t12.5 155q0 126 -8 170q-5 31 -33 45q-150 80 -318 80q-166 0 -264 -94.5t-98 -276.5z" />
<glyph unicode="&#xf1;" horiz-adv-x="1130" d="M158 0v999h71l27 -84l55 25q171 76 299 76q91 0 168 -28.5t125 -78.5q86 -92 86 -260v-649h-104v629q0 83 -14 132.5t-46 84.5q-71 74 -227 74q-135 0 -281 -54l-32 -12q-15 -6 -19 -11.5t-4 -17.5v-825h-104zM262 1190q26 79 73 120.5t109 41.5q44 0 140 -44t139 -44 q71 0 119 90l53 -19q-26 -78 -73 -119.5t-109 -41.5q-44 0 -140 44t-139 44q-75 0 -119 -88z" />
<glyph unicode="&#xf2;" horiz-adv-x="1130" d="M90 500q0 141 59 258.5t168.5 187.5t247.5 70t247.5 -70t168.5 -187.5t59 -258.5t-59 -258.5t-168.5 -187.5t-247.5 -70t-247.5 70t-168.5 187.5t-59 258.5zM199 500q0 -193 98 -307.5t268 -114.5q171 0 269 114.5t98 307.5t-98 307.5t-269 114.5q-170 0 -268 -114.5 t-98 -307.5zM332 1339l55 82q11 17 27 4l381 -280l-33 -45z" />
<glyph unicode="&#xf3;" horiz-adv-x="1130" d="M90 500q0 141 59 258.5t168.5 187.5t247.5 70t247.5 -70t168.5 -187.5t59 -258.5t-59 -258.5t-168.5 -187.5t-247.5 -70t-247.5 70t-168.5 187.5t-59 258.5zM199 500q0 -193 98 -307.5t268 -114.5q171 0 269 114.5t98 307.5t-98 307.5t-269 114.5q-170 0 -268 -114.5 t-98 -307.5zM346 1145l381 280q17 11 27 -4l55 -82l-430 -239z" />
<glyph unicode="&#xf4;" horiz-adv-x="1130" d="M90 500q0 141 59 258.5t168.5 187.5t247.5 70t247.5 -70t168.5 -187.5t59 -258.5t-59 -258.5t-168.5 -187.5t-247.5 -70t-247.5 70t-168.5 187.5t-59 258.5zM199 500q0 -193 98 -307.5t268 -114.5q171 0 269 114.5t98 307.5t-98 307.5t-269 114.5q-170 0 -268 -114.5 t-98 -307.5zM258 1149l252 266q17 17 41 17h24q22 0 39 -17l256 -266l-39 -37l-264 217h-6l-264 -217z" />
<glyph unicode="&#xf5;" horiz-adv-x="1130" d="M90 500q0 141 59 258.5t168.5 187.5t247.5 70t247.5 -70t168.5 -187.5t59 -258.5t-59 -258.5t-168.5 -187.5t-247.5 -70t-247.5 70t-168.5 187.5t-59 258.5zM199 500q0 -193 98 -307.5t268 -114.5q171 0 269 114.5t98 307.5t-98 307.5t-269 114.5q-170 0 -268 -114.5 t-98 -307.5zM248 1190q26 79 73 120.5t109 41.5q44 0 140 -44t139 -44q70 0 118 90l54 -19q-26 -78 -73.5 -119.5t-109.5 -41.5q-44 0 -139.5 44t-138.5 44q-75 0 -119 -88z" />
<glyph unicode="&#xf6;" horiz-adv-x="1130" d="M90 500q0 141 59 258.5t168.5 187.5t247.5 70t247.5 -70t168.5 -187.5t59 -258.5t-59 -258.5t-168.5 -187.5t-247.5 -70t-247.5 70t-168.5 187.5t-59 258.5zM199 500q0 -193 98 -307.5t268 -114.5q171 0 269 114.5t98 307.5t-98 307.5t-269 114.5q-170 0 -268 -114.5 t-98 -307.5zM319 1171v152h117q18 0 23.5 -4.5t5.5 -18.5v-129h-146zM662 1171v152h116q18 0 23.5 -4.5t5.5 -18.5v-129h-145z" />
<glyph unicode="&#xf7;" horiz-adv-x="1064" d="M168 461v84h727v-84h-727zM465 115v143h104q20 0 25.5 -3.5t5.5 -16.5v-123h-135zM465 748v145h104q20 0 25.5 -4t5.5 -19v-122h-135z" />
<glyph unicode="&#xf8;" horiz-adv-x="1130" d="M90 500q0 141 59 258.5t168.5 187.5t247.5 70q155 0 273 -88l139 184l67 -45l-145 -193q67 -71 104 -168.5t37 -205.5q0 -141 -59 -258.5t-168.5 -187.5t-247.5 -70q-149 0 -272 86l-131 -174l-66 45l137 182q-69 70 -106 168t-37 209zM199 500q0 -189 92 -301l491 655 q-90 68 -217 68q-170 0 -268 -114.5t-98 -307.5zM348 143q86 -65 217 -65q171 0 269 114.5t98 307.5q0 183 -90 297z" />
<glyph unicode="&#xf9;" horiz-adv-x="1126" d="M141 350v649h105v-628q0 -83 14 -133t45 -84q73 -76 225 -76q130 0 279 55l33 12q14 6 18 11t4 18v825h105v-999h-72l-27 84l-55 -25q-169 -75 -297 -75q-91 0 -167 28t-124 78q-86 92 -86 260zM299 1339l55 82q11 17 27 4l381 -280l-33 -45z" />
<glyph unicode="&#xfa;" horiz-adv-x="1126" d="M141 350v649h105v-628q0 -83 14 -133t45 -84q73 -76 225 -76q130 0 279 55l33 12q14 6 18 11t4 18v825h105v-999h-72l-27 84l-55 -25q-169 -75 -297 -75q-91 0 -167 28t-124 78q-86 92 -86 260zM371 1145l381 280q16 11 26 -4l56 -82l-431 -239z" />
<glyph unicode="&#xfb;" horiz-adv-x="1126" d="M141 350v649h105v-628q0 -83 14 -133t45 -84q73 -76 225 -76q130 0 279 55l33 12q14 6 18 11t4 18v825h105v-999h-72l-27 84l-55 -25q-169 -75 -297 -75q-91 0 -167 28t-124 78q-86 92 -86 260zM256 1149l252 266q17 17 41 17h24q22 0 39 -17l256 -266l-39 -37l-264 217 h-6l-264 -217z" />
<glyph unicode="&#xfc;" horiz-adv-x="1126" d="M141 350v649h105v-628q0 -83 14 -133t45 -84q73 -76 225 -76q130 0 279 55l33 12q14 6 18 11t4 18v825h105v-999h-72l-27 84l-55 -25q-169 -75 -297 -75q-91 0 -167 28t-124 78q-86 92 -86 260zM317 1171v152h117q18 0 23.5 -4.5t5.5 -18.5v-129h-146zM659 1171v152h117 q18 0 23.5 -4.5t5.5 -18.5v-129h-146z" />
<glyph unicode="&#xfd;" horiz-adv-x="1046" d="M14 999h90q18 0 25 -14l403 -885l390 885q7 14 24 14h86l-659 -1472l-92 27l200 440zM350 1145l381 280q17 11 27 -4l55 -82l-430 -239z" />
<glyph unicode="&#xfe;" horiz-adv-x="1157" d="M158 -469v1921h104v-569l51 30q172 103 324 103q131 0 229.5 -69.5t148.5 -185.5t50 -261q0 -143 -51.5 -259.5t-151 -186.5t-229.5 -70q-140 0 -307 96l-64 37v-586h-104zM262 223q0 -24 17 -35q78 -49 171 -80.5t173 -31.5q156 0 244.5 109t88.5 315q0 207 -87.5 315.5 t-241.5 108.5q-155 0 -348 -111q-17 -9 -17 -33v-557z" />
<glyph unicode="&#xff;" horiz-adv-x="1046" d="M14 999h90q18 0 25 -14l403 -885l390 885q7 14 24 14h86l-659 -1472l-92 27l200 440zM281 1171v152h116q18 0 23.5 -4.5t5.5 -18.5v-129h-145zM623 1171v152h116q18 0 23.5 -4.5t5.5 -18.5v-129h-145z" />
<glyph unicode="&#x152;" horiz-adv-x="2205" d="M86 678q0 139 47.5 266.5t131.5 223.5t208 153t268 57q175 0 317.5 -90t223.5 -244v314h809v-90h-702v-514h634v-88h-634v-578h727v-88h-834v313q-81 -154 -223.5 -243.5t-317.5 -89.5q-144 0 -268 56.5t-208 152.5t-131.5 223t-47.5 266zM197 678q0 -266 150.5 -431 t393.5 -165q242 0 390.5 165t148.5 431t-148.5 432t-390.5 166q-243 0 -393.5 -166t-150.5 -432z" />
<glyph unicode="&#x153;" horiz-adv-x="1945" d="M90 500q0 141 59 258.5t168.5 187.5t247.5 70q141 0 251.5 -72.5t168.5 -195.5q58 123 167.5 195.5t248.5 72.5q193 0 320.5 -137t127.5 -338q0 -35 -7 -47.5t-23 -12.5h-781q8 -181 106 -293t281 -112q129 0 273 67l104 50l35 -52q-215 -157 -420 -157 q-150 0 -261.5 71.5t-170.5 196.5q-58 -123 -168.5 -195.5t-251.5 -72.5q-138 0 -247.5 70t-168.5 187.5t-59 258.5zM199 500q0 -193 98 -307.5t268 -114.5q171 0 269 114.5t98 307.5t-98 307.5t-269 114.5q-170 0 -268 -114.5t-98 -307.5zM1040 561h709q-9 174 -103 269.5 t-245 95.5t-249.5 -97.5t-111.5 -267.5z" />
<glyph unicode="&#x178;" horiz-adv-x="1187" d="M14 1358h95q20 0 30 -17l455 -792l457 790q11 19 34 19h91l-529 -901v-457h-108v457zM346 1540v152h117q18 0 23.5 -4.5t5.5 -18.5v-129h-146zM688 1540v152h117q18 0 23.5 -4.5t5.5 -18.5v-129h-146z" />
<glyph unicode="&#x2c6;" horiz-adv-x="786" d="M86 1149l252 266q17 17 41 17h24q22 0 39 -17l256 -266l-39 -37l-264 217h-6l-264 -217z" />
<glyph unicode="&#x2dc;" horiz-adv-x="786" d="M76 1190q26 79 73 120.5t109 41.5q44 0 140 -44t139 -44q70 0 118 90l54 -19q-26 -78 -73.5 -119.5t-109.5 -41.5q-44 0 -139.5 44t-138.5 44q-75 0 -119 -88z" />
<glyph unicode="&#x2000;" horiz-adv-x="907" />
<glyph unicode="&#x2001;" horiz-adv-x="1815" />
<glyph unicode="&#x2002;" horiz-adv-x="907" />
<glyph unicode="&#x2003;" horiz-adv-x="1815" />
<glyph unicode="&#x2004;" horiz-adv-x="605" />
<glyph unicode="&#x2005;" horiz-adv-x="453" />
<glyph unicode="&#x2006;" horiz-adv-x="302" />
<glyph unicode="&#x2007;" horiz-adv-x="302" />
<glyph unicode="&#x2008;" horiz-adv-x="226" />
<glyph unicode="&#x2009;" horiz-adv-x="363" />
<glyph unicode="&#x200a;" horiz-adv-x="100" />
<glyph unicode="&#x2010;" horiz-adv-x="862" d="M143 459v84h576v-84h-576z" />
<glyph unicode="&#x2011;" horiz-adv-x="862" d="M143 459v84h576v-84h-576z" />
<glyph unicode="&#x2012;" horiz-adv-x="862" d="M143 459v84h576v-84h-576z" />
<glyph unicode="&#x2013;" horiz-adv-x="1300" d="M143 459v84h1014v-84h-1014z" />
<glyph unicode="&#x2014;" horiz-adv-x="2324" d="M143 459v84h2038v-84h-2038z" />
<glyph unicode="&#x2018;" horiz-adv-x="434" d="M135 946v62q0 79 34 144t138 198l41 -23l-115 -227q-7 -13 3 -23l22 -18q14 -12 17.5 -19t3.5 -20v-96h-117q-15 0 -21 4.5t-6 17.5z" />
<glyph unicode="&#x2019;" horiz-adv-x="434" d="M86 954l115 228q7 13 -2 22l-23 19q-13 12 -16.5 18.5t-3.5 20.5v96h116q15 0 21 -5t6 -18v-61q0 -79 -34 -144t-138 -198z" />
<glyph unicode="&#x201a;" horiz-adv-x="411" d="M59 -270l115 227q7 14 -2 23l-22 18q-14 12 -17.5 19t-3.5 20v96h117q15 0 20.5 -4.5t5.5 -17.5v-62q0 -79 -34 -144t-138 -198z" />
<glyph unicode="&#x201c;" horiz-adv-x="706" d="M135 948v62q0 79 34 144t138 198l41 -23l-115 -227q-7 -13 3 -23l22 -18q14 -12 17.5 -19t3.5 -20v-96h-117q-15 0 -21 4.5t-6 17.5zM408 948v62q0 79 34 144t138 198l41 -23l-115 -227q-7 -14 2 -23l22 -18q14 -12 17.5 -19t3.5 -20v-96h-117q-15 0 -20.5 4.5t-5.5 17.5 z" />
<glyph unicode="&#x201d;" horiz-adv-x="706" d="M86 954l115 228q7 13 -2 22l-23 19q-13 12 -16.5 18.5t-3.5 20.5v96h116q15 0 21 -5t6 -18v-61q0 -79 -34 -144t-138 -198zM358 954l115 228q7 13 -2 22l-22 19q-14 12 -17.5 19t-3.5 20v96h117q15 0 20.5 -5t5.5 -18v-61q0 -79 -34 -144t-138 -198z" />
<glyph unicode="&#x201e;" horiz-adv-x="684" d="M59 -270l115 227q7 14 -2 23l-22 18q-14 12 -17.5 19t-3.5 20v96h117q15 0 20.5 -4.5t5.5 -17.5v-62q0 -79 -34 -144t-138 -198zM332 -270l114 227q7 14 -2 23l-22 18q-14 12 -17.5 19t-3.5 20v96h117q15 0 21 -4.5t6 -17.5v-62q0 -79 -34 -144t-138 -198z" />
<glyph unicode="&#x2022;" horiz-adv-x="692" d="M170 397v351h311q26 0 33.5 -7.5t7.5 -29.5v-314h-352z" />
<glyph unicode="&#x2026;" horiz-adv-x="1259" d="M139 0v145h115q17 0 22 -4t5 -18v-123h-142zM559 0v145h115q17 0 21.5 -4t4.5 -18v-123h-141zM979 0v145h115q17 0 21.5 -4t4.5 -18v-123h-141z" />
<glyph unicode="&#x202f;" horiz-adv-x="363" />
<glyph unicode="&#x2039;" horiz-adv-x="704" d="M127 487v56l408 334l43 -46l-342 -327l342 -328l-43 -45l-390 320q-12 11 -15 17t-3 19z" />
<glyph unicode="&#x203a;" horiz-adv-x="704" d="M127 176l342 328l-342 327l43 46l389 -320q12 -11 15.5 -17.5t3.5 -19.5v-55l-408 -334z" />
<glyph unicode="&#x205f;" horiz-adv-x="453" />
<glyph unicode="&#x20ac;" d="M68 510v59l157 13q-4 58 -4 96q0 47 2 72h-155v59l161 12q23 160 90 285t177 198.5t247 73.5q123 0 229.5 -72t162.5 -182l-52 -32l-112 98q-59 51 -113.5 73.5t-122.5 22.5q-147 0 -258 -119t-139 -338h446v-79h-452q-2 -20 -2 -70q0 -61 2 -90h452v-80h-444 q29 -204 136.5 -322t283.5 -118q110 0 258 63l92 39l35 -53q-89 -64 -195 -101.5t-200 -37.5q-209 0 -345 144t-172 386h-165z" />
<glyph unicode="&#x2122;" horiz-adv-x="1409" d="M37 1288v70h510v-70h-213v-559h-82v559h-215zM664 729v629h45q16 0 26 -12l254 -316l250 316q10 12 29 12h35v-629h-78v488l-211 -261h-35q-14 0 -27 13l-213 256v-496h-75z" />
<glyph unicode="&#x25fc;" horiz-adv-x="1003" d="M0 0v1004h1004v-1004h-1004z" />
</font>
</defs>
</svg>
